<svg width="158" height="46" viewBox="0 0 158 46" fill="none" xmlns="http://www.w3.org/2000/svg">
<path d="M13.7192 0.555786V3.87312H5.49092V7.90772H12.1757V11.0721H5.49092V15.2368H14.0014V18.5532H1.63477V0.555786H13.7192Z" fill="#003841"/>
<mask id="mask0_21362_43695" style="mask-type:luminance" maskUnits="userSpaceOnUse" x="0" y="0" width="158" height="46">
<path d="M157.34 0.401855H0V45.5981H157.34V0.401855Z" fill="white"/>
</mask>
<g mask="url(#mask0_21362_43695)">
<path d="M15.8474 9.55573C15.8474 4.30988 19.4732 0.401855 24.7665 0.401855C30.0598 0.401855 33.6883 4.30988 33.6883 9.55573C33.6883 14.8016 30.066 18.7087 24.7665 18.7087C19.4671 18.7087 15.8447 14.8007 15.8447 9.55485M29.9087 9.55485C29.9087 5.98173 27.8773 3.66557 24.7657 3.66557C21.6285 3.66557 19.5972 5.97997 19.5972 9.55485C19.5972 13.1297 21.6285 15.4441 24.7657 15.4441C27.8773 15.4441 29.9087 13.1306 29.9087 9.55485ZM21.1925 8.16604H28.3124V10.8909H21.1925V8.16604Z" fill="#003841"/>
<path d="M36.543 0.555786H40.0387L47.6754 11.8948V0.555786H51.4806V18.5541H47.9585L40.3226 7.21507V18.5541H36.543V0.555786Z" fill="#003841"/>
<path d="M58.8532 0.555786H54.9971V18.5541H58.8532V0.555786Z" fill="#003841"/>
<path d="M66.2263 0.555786V8.70673L73.4252 0.556665H78.105L71.4457 8.06506L78.5419 18.555H73.9122L68.72 10.8963L66.2263 13.7249V18.5594H62.3701V0.555786H66.2263Z" fill="#003841"/>
<path d="M84.5544 0.555542V7.7809H91.7024V0.555542H95.5585V18.5539H91.7024V11.1237H84.5544V18.5548H80.6982V0.555542H84.5544Z" fill="#003841"/>
<path d="M50.5129 25.246V28.6204H45.2038V43.5528H41.2808V28.6204H35.998V25.246H50.5129Z" fill="#003841"/>
<path d="M68.3162 31.6794C68.3162 34.922 65.3874 37.4069 59.2933 37.4069H57.5934V43.5528H53.6484L53.6739 25.246H58.4601C64.9198 25.246 68.3198 27.7828 68.3198 31.6794M57.596 28.515V34.1405C61.9374 34.1405 64.0557 33.2519 64.0557 31.3427C64.0557 29.2507 62.042 28.5176 57.596 28.5176" fill="#003841"/>
<path d="M74.458 25.246H79.165L85.8085 43.5528H81.5981L80.1855 39.5516H73.2292L71.8166 43.5528H67.7627L74.458 25.246ZM79.1167 36.3873L76.6845 29.4309L74.2787 36.3873H79.1167Z" fill="#003841"/>
<path d="M88.001 25.246H103.091V43.5528H99.1677V28.6204H91.9239V43.5528H88.001V25.246Z" fill="#003841"/>
<path d="M118.983 25.246V28.6204H110.614V32.7262H117.413V35.9434H110.614V40.1801H119.271V43.5537H106.692V25.246H118.983Z" fill="#003841"/>
<path d="M136.81 25.246V27.8355L127.422 40.2056H137.046V43.5528H122.008V40.9642L131.396 28.5941H122.243V25.246H136.81Z" fill="#003841"/>
<path d="M145.991 25.246H150.698L157.342 43.5528H153.131L151.719 39.5516H144.762L143.35 43.5528H139.296L145.991 25.246ZM150.65 36.3873L148.218 29.4309L145.812 36.3873H150.65Z" fill="#003841"/>
<path d="M17.2942 23.7953C7.74307 23.7953 0 28.6764 0 34.6966C0 40.7169 7.74307 45.5962 17.2942 45.5962C26.8454 45.5962 34.5885 40.7151 34.5885 34.6966C34.5885 28.6781 26.8454 23.797 17.2942 23.797" fill="#00DEF8"/>
<path d="M32.2644 34.6968H34.5885C34.5885 34.6405 34.5885 34.5843 34.5885 34.5289H32.2644V34.194H34.57C34.57 34.1659 34.57 34.1377 34.5639 34.1061H32.2644V31.4225H33.7965L33.7895 31.4085C33.7637 31.3575 33.7373 31.3062 33.7104 31.2546H31.7608V30.9189H33.524L33.4924 30.8661L33.4177 30.7431L33.3702 30.6666H31.7608V30.3835L32.9993 30.1199C32.9641 30.0718 32.9281 30.0237 32.8911 29.9757L32.1589 30.1304L31.9603 29.8975C31.9327 29.8654 31.896 29.8425 31.855 29.8319C31.8141 29.8212 31.7709 29.8234 31.7312 29.838C31.6915 29.8527 31.6572 29.8791 31.633 29.9137C31.6087 29.9484 31.5956 29.9896 31.5955 30.0319V30.3343H20.4402V28.8805C20.44 28.8382 20.427 28.7969 20.4027 28.7622C20.3784 28.7276 20.3442 28.7012 20.3045 28.6865C20.2648 28.6719 20.2216 28.6698 20.1806 28.6804C20.1397 28.691 20.103 28.7139 20.0754 28.746L19.7238 29.1644L17.768 28.7504L17.6801 28.4357C17.6563 28.3546 17.6069 28.2834 17.5392 28.2327C17.4716 28.182 17.3893 28.1547 17.3048 28.1547C17.2203 28.1547 17.138 28.182 17.0703 28.2327C17.0027 28.2834 16.9533 28.3546 16.9295 28.4357L16.8416 28.7504L14.884 29.1644L14.5324 28.746C14.5049 28.7139 14.4681 28.691 14.4272 28.6804C14.3862 28.6698 14.343 28.6719 14.3033 28.6865C14.2636 28.7012 14.2294 28.7276 14.2051 28.7622C14.1809 28.7969 14.1678 28.8382 14.1677 28.8805V30.3343H2.99825V30.0319C2.99682 29.9907 2.98309 29.9507 2.95883 29.9173C2.93456 29.8839 2.90087 29.8584 2.86206 29.8443C2.82325 29.8301 2.78109 29.8279 2.74099 29.8378C2.70089 29.8477 2.66468 29.8694 2.63699 29.9001L2.43833 30.133L1.70349 29.9775C1.66658 30.0267 1.62966 30.0759 1.59274 30.1251L2.83388 30.3888V30.6719H1.21741C1.16467 30.7551 1.11369 30.8392 1.06446 30.9241H2.83037V31.2599H0.878996L0.842957 31.3285C0.826256 31.361 0.809555 31.3944 0.792854 31.4278H2.32758V34.1114H0.0246119V34.1377C0.0246119 34.1571 0.0246119 34.1764 0.0246119 34.1958H2.32758V34.5307H0C0 34.586 0 34.6423 0 34.6985H2.32758V37.0463H0.40258L0.432466 37.1342H2.32758V37.47H0.562557C0.646941 37.6728 0.740114 37.8735 0.842078 38.0721C0.886028 38.1571 0.931443 38.2415 0.978322 38.3253L0.986233 38.3385V37.5535H1.07413V38.4756H1.06446L1.11457 38.5635H2.32758V39.7378H1.94873C1.99444 39.7932 2.03663 39.8477 2.08761 39.9031L13.8925 39.8969V40.3162H20.6854V39.8969H32.5026L32.6169 39.7624L32.6397 39.7343H32.2635V38.56H33.4739L33.5082 38.502L33.5231 38.4765V37.5544H33.611V38.3341C33.6755 38.2169 33.7367 38.1014 33.7947 37.9878L33.8457 37.8832C33.912 37.7466 33.9738 37.6092 34.0312 37.4709H32.2732V37.1351H34.1657L34.1956 37.0472H32.2644V34.6968ZM31.8399 30.0188L31.9708 30.1726L31.7616 30.2165V30.0469C31.7618 30.0379 31.7647 30.0292 31.7699 30.0218C31.7751 30.0145 31.7824 30.0089 31.7909 30.0057C31.7993 30.0026 31.8085 30.0021 31.8172 30.0043C31.826 30.0064 31.8339 30.0121 31.8399 30.0188ZM2.32758 38.4703H1.48902V38.0528H2.32758V38.4703ZM2.32758 37.9675H1.48902V37.5483H2.32758V37.9675ZM2.83037 39.7255H2.49459V31.4234H2.83037V39.7255ZM2.83037 30.2139L2.62117 30.17L2.75214 30.0161C2.75814 30.0094 2.76602 30.0047 2.77476 30.0025C2.7835 30.0003 2.79269 30.0009 2.80113 30.004C2.80957 30.0071 2.81688 30.0127 2.82209 30.0201C2.82731 30.0274 2.83019 30.0361 2.83037 30.0451V30.2139ZM31.5937 30.6683H20.2696V30.5013H31.5929L31.5937 30.6683ZM20.2732 37.5456H20.9438V37.964H20.2732V37.5456ZM20.9438 38.4659H20.2732V38.0528H20.9438V38.4659ZM20.2705 30.918H31.5929V31.2511H20.2696L20.2705 30.918ZM20.1949 28.8638C20.2007 28.8566 20.2086 28.8513 20.2175 28.8489C20.2264 28.8464 20.2359 28.8468 20.2445 28.85C20.2532 28.8532 20.2606 28.8591 20.2657 28.8668C20.2709 28.8744 20.2735 28.8835 20.2732 28.8928V29.2795L19.9066 29.2022L20.1949 28.8638ZM17.0182 28.5491L17.0613 28.5113V28.4445C17.0614 28.4389 17.0626 28.4335 17.0649 28.4284C17.0671 28.4233 17.0703 28.4187 17.0743 28.4149C17.0783 28.4111 17.083 28.4081 17.0882 28.406C17.0933 28.404 17.0988 28.4031 17.1044 28.4032H17.1852L17.2635 28.3346C17.2718 28.3268 17.2828 28.3224 17.2942 28.3224C17.3057 28.3224 17.3167 28.3268 17.325 28.3346L17.4032 28.4032H17.4841C17.4896 28.4031 17.4952 28.404 17.5003 28.406C17.5055 28.4081 17.5102 28.4111 17.5142 28.4149C17.5182 28.4187 17.5214 28.4233 17.5236 28.4284C17.5259 28.4335 17.5271 28.4389 17.5272 28.4445V28.5113L17.5702 28.5491C17.5867 28.5631 17.597 28.583 17.599 28.6045C17.601 28.626 17.5944 28.6475 17.5808 28.6642L17.5439 28.7038L17.2916 28.6502L17.0341 28.7047L17.0042 28.6642C16.9905 28.6475 16.984 28.626 16.9859 28.6045C16.9879 28.583 16.9983 28.5631 17.0147 28.5491M14.3153 28.8928C14.315 28.8835 14.3176 28.8744 14.3227 28.8668C14.3279 28.8591 14.3353 28.8532 14.344 28.85C14.3526 28.8468 14.3621 28.8464 14.371 28.8489C14.3799 28.8513 14.3878 28.8566 14.3936 28.8638L14.6819 29.2022L14.3153 29.2795V28.8928ZM14.3153 29.4509L17.2925 28.8216L20.2696 29.4509V29.7454H14.3188L14.3153 29.4509ZM19.4302 38.2989H20.1009V38.7982H19.4302V38.2989ZM20.1009 39.7246H19.4302V38.8861H20.1009V39.7246ZM19.4302 37.7117H20.1009V38.211H19.4302V37.7117ZM19.4302 37.1246H20.1009V37.6238H19.4302V37.1246ZM19.4302 34.6924H20.1009V37.0402H19.4302V34.6924ZM19.4302 34.1878H20.1009V34.5245H19.4302V34.1878ZM19.4302 30.6666H20.1009V34.1052H19.4302V30.6666ZM14.4823 29.9959H20.1009V30.4996H14.4867L14.4823 29.9959ZM18.5908 38.298H19.2614V38.7973H18.5908V38.298ZM19.2614 39.7238H18.5908V38.8852H19.2614V39.7238ZM18.5908 37.7109H19.2614V38.2101H18.5908V37.7109ZM18.5908 37.1237H19.2614V37.623H18.5908V37.1237ZM18.5908 34.6915H19.2614V37.0393H18.5908V34.6915ZM15.32 34.1887H19.2614V34.5254H15.3253L15.32 34.1887ZM18.3376 36.2016C18.3376 36.1876 18.3376 36.1735 18.3376 36.1594C18.3376 35.8814 18.2272 35.6148 18.0306 35.4182C17.834 35.2217 17.5674 35.1112 17.2894 35.1112C17.0114 35.1112 16.7448 35.2217 16.5482 35.4182C16.3516 35.6148 16.2412 35.8814 16.2412 36.1594C16.2412 36.1735 16.2412 36.1876 16.2412 36.2016H16.0724V34.9438H18.5117V36.2069L18.3376 36.2016ZM18.5064 39.7238H18.3385V36.3739H18.5064V39.7238ZM16.6605 38.2145H16.4091V37.4595H16.6605V38.2145ZM16.4091 36.8732H16.6605V37.3768H16.4091V36.8732ZM16.6605 39.0513H16.4091V38.8852H16.6605V39.0513ZM18.1697 39.6403H16.4117V39.3889H18.1697V39.6403ZM17.1633 38.2145H16.9119V37.4595H17.1633V38.2145ZM16.9119 36.8732H17.1633V37.3768H16.9119V36.8732ZM17.1633 39.0513H16.9119V38.8852H17.1633V39.0513ZM17.6669 38.2145H17.4217V37.4595H17.6731L17.6669 38.2145ZM17.4155 36.8732H17.6669V37.3768H17.4217L17.4155 36.8732ZM17.6669 39.0531H17.4217V38.8852H17.6731L17.6669 39.0531ZM17.9183 38.8852H18.1697V39.0531H17.9183V38.8852ZM17.9183 37.4595H18.1697V38.2145H17.9183V37.4595ZM17.9183 36.8723H18.1697V37.376H17.9183V36.8723ZM16.4091 36.3686H18.1671V36.5365H16.4091V36.3686ZM16.2412 39.7229H16.0733V36.3739H16.2412V39.7229ZM16.0733 34.6915H18.5117V34.8594H16.0795L16.0733 34.6915ZM15.3183 38.2954H15.9977V38.7947H15.327L15.3183 38.2954ZM15.9889 39.7211H15.3183V38.8826H15.9977L15.9889 39.7211ZM15.3183 37.7082H15.9977V38.2075H15.327L15.3183 37.7082ZM15.3183 37.1211H15.9977V37.6203H15.327L15.3183 37.1211ZM15.3183 34.6889H15.9977V37.0367H15.327L15.3183 34.6889ZM18.5046 31.1667V33.431H17.9175V32.2567H17.3303V33.431H17.2424V32.2567H16.6552V33.431H16.068V31.1667H15.6488V33.431H15.313V30.6692H19.1709V33.4363H18.9195V31.172L18.5046 31.1667ZM18.6725 34.1017H18.2532V33.598H18.6725V34.1017ZM18.0853 34.1017H17.6661V33.598H18.0853V34.1017ZM17.4982 34.1017H17.0789V33.598H17.4982V34.1017ZM16.911 34.1017H16.4988V33.598H16.918L16.911 34.1017ZM16.3238 34.1017H15.9098V33.598H16.3291L16.3238 34.1017ZM15.7367 34.1017H15.3174V33.6024H15.7367V34.1017ZM18.8395 33.6024H19.2588V34.1061H18.8395V33.6024ZM14.4788 38.298H15.1495V38.7973H14.4788V38.298ZM15.1495 39.7238H14.4788V38.8852H15.1495V39.7238ZM14.4788 37.7109H15.1495V38.2101H14.4788V37.7109ZM14.4788 37.1237H15.1495V37.623H14.4788V37.1237ZM14.4788 34.6915H15.1495V37.0393H14.4788V34.6915ZM14.4788 34.187H15.1495V34.5236H14.4788V34.187ZM14.4788 30.6657H15.1495V34.1043H14.4788V30.6657ZM2.99034 30.4978H14.3188V30.6657H2.99825L2.99034 30.4978ZM2.99034 30.9171H14.3276V31.2529H2.99825L2.99034 30.9171ZM2.99034 31.4199H14.3276V34.1035H2.99825L2.99034 31.4199ZM2.99034 34.187H14.3188V34.5227H2.99825L2.99034 34.187ZM2.99034 34.6898H14.3188V37.0376H2.99825L2.99034 34.6898ZM2.99034 37.1219H14.3188V37.4577H2.99825L2.99034 37.1219ZM13.6403 37.5421H14.3109V37.9605H13.6403V37.5421ZM14.3109 38.4624H13.6403V38.0528H14.3109V38.4624ZM11.7952 37.5421H12.8852V37.9605H11.7952V37.5421ZM12.8852 38.4624H11.7952V38.0528H12.8852V38.4624ZM9.95023 37.5421H11.0402V37.9605H9.95023V37.5421ZM11.0402 38.4624H9.95023V38.0528H11.0402V38.4624ZM8.11313 37.5491H9.20309V37.9675H8.11313V37.5491ZM9.20309 38.4694H8.11313V38.0528H9.20309V38.4694ZM6.26812 37.5491H7.35807V37.9675H6.26812V37.5491ZM7.35807 38.4694H6.26812V38.0528H7.35807V38.4694ZM4.42311 37.5491H5.51306V37.9675H4.42399L4.42311 37.5491ZM5.51306 38.4694H4.42399V38.0528H5.51394L5.51306 38.4694ZM2.99738 37.5491H3.66805V37.9675H2.99825L2.99738 37.5491ZM2.99738 38.051H3.66805V38.4694H2.99825L2.99738 38.051ZM2.99738 38.5538H14.3188V39.2245H2.99825L2.99738 38.5538ZM2.99738 39.4768H14.3276V39.7282H2.99825L2.99738 39.4768ZM20.5237 40.1474H14.0639V39.8987H20.5246L20.5237 40.1474ZM31.5929 39.7282H20.2723V39.4768H31.5929V39.7282ZM31.5929 39.2254H20.2723V38.5547H31.5929V39.2254ZM22.788 38.4694H21.698V38.0528H22.788V38.4694ZM21.698 37.5491H22.788V37.9675H21.698V37.5491ZM24.633 38.4694H23.543V38.0528H24.633V38.4694ZM23.543 37.5491H24.633V37.9675H23.543V37.5491ZM26.478 38.4694H25.388V38.0528H26.478V38.4694ZM25.388 37.5491H26.478V37.9675H25.388V37.5491ZM28.323 38.4694H27.233V38.0528H28.323V38.4694ZM27.233 37.5491H28.323V37.9675H27.233V37.5491ZM30.168 38.4694H29.0772V38.0528H30.1671L30.168 38.4694ZM29.0781 37.5491H30.168V37.9675H29.0772L29.0781 37.5491ZM31.5937 38.4694H30.9231V38.0528H31.5937V38.4694ZM31.5937 37.9675H30.9231V37.5491H31.5937V37.9675ZM31.5937 37.4647H20.2723V37.129H31.5929L31.5937 37.4647ZM31.5937 37.0455H20.2723V34.6977H31.5929L31.5937 37.0455ZM31.5937 34.5298H20.2723V34.194H31.5929L31.5937 34.5298ZM31.5999 34.1105H20.2723V31.4269H31.599L31.5999 34.1105ZM32.0974 39.729H31.7616V31.4269H32.0974V39.729ZM32.2653 37.5491H33.1039V37.9684H32.2653V37.5491ZM32.2653 38.0528H33.1039V38.4721H32.2653V38.0528Z" fill="#003C49"/>
<path d="M2.66253 30.5038L1.49435 30.2533L1.44161 30.328L1.39062 30.4027L1.85122 30.5003L2.66253 30.5038Z" fill="#003C49"/>
<path d="M15.002 29.4972H16.2176L17.2961 29.2695L18.3747 29.4972H19.5903L17.2961 29.012L15.002 29.4972Z" fill="#003C49"/>
<path d="M32.7391 30.5039L33.1971 30.4072L33.1461 30.3316L33.0934 30.2578L31.9287 30.5039H32.7391Z" fill="#003C49"/>
<path d="M4.67581 32.014H3.41797V32.0975H4.67581V32.014Z" fill="#003C49"/>
<path d="M4.42596 32.2655H3.6709V32.6848H4.42596V32.2655Z" fill="#003C49"/>
<path d="M4.00667 32.7681H3.6709V33.858H4.00667V32.7681Z" fill="#003C49"/>
<path d="M4.42367 32.7681H4.08789V33.858H4.42367V32.7681Z" fill="#003C49"/>
<path d="M6.51956 32.0139H5.26172V32.0974H6.51956V32.0139Z" fill="#003C49"/>
<path d="M6.26971 32.2655H5.51465V32.6848H6.26971V32.2655Z" fill="#003C49"/>
<path d="M5.85042 32.7681H5.51465V33.858H5.85042V32.7681Z" fill="#003C49"/>
<path d="M6.26839 32.7681H5.93262V33.858H6.26839V32.7681Z" fill="#003C49"/>
<path d="M8.36624 32.0139H7.1084V32.0974H8.36624V32.0139Z" fill="#003C49"/>
<path d="M8.11346 32.2655H7.3584V32.6848H8.11346V32.2655Z" fill="#003C49"/>
<path d="M7.69417 32.7681H7.3584V33.858H7.69417V32.7681Z" fill="#003C49"/>
<path d="M8.11507 32.7681H7.7793V33.858H8.11507V32.7681Z" fill="#003C49"/>
<path d="M10.209 32.0139H8.95117V32.0974H10.209V32.0139Z" fill="#003C49"/>
<path d="M9.96014 32.2655H9.20508V32.6848H9.96014V32.2655Z" fill="#003C49"/>
<path d="M9.54085 32.7681H9.20508V33.858H9.54085V32.7681Z" fill="#003C49"/>
<path d="M9.95785 32.7681H9.62207V33.858H9.95785V32.7681Z" fill="#003C49"/>
<path d="M12.0537 32.0139H10.7959V32.0974H12.0537V32.0139Z" fill="#003C49"/>
<path d="M11.8019 32.2655H11.0469V32.6848H11.8019V32.2655Z" fill="#003C49"/>
<path d="M11.3827 32.7681H11.0469V33.858H11.3827V32.7681Z" fill="#003C49"/>
<path d="M11.8045 32.7681H11.4688V33.858H11.8045V32.7681Z" fill="#003C49"/>
<path d="M13.9014 32.0139H12.6436V32.0974H13.9014V32.0139Z" fill="#003C49"/>
<path d="M13.6476 32.2655H12.8926V32.6848H13.6476V32.2655Z" fill="#003C49"/>
<path d="M13.2284 32.7681H12.8926V33.858H13.2284V32.7681Z" fill="#003C49"/>
<path d="M13.6483 32.7681H13.3125V33.858H13.6483V32.7681Z" fill="#003C49"/>
<path d="M18.1776 31.5112H16.417V31.5947H18.1776V31.5112Z" fill="#003C49"/>
<path d="M17.9248 31.7617H16.667V32.1775H17.9248V31.7617Z" fill="#003C49"/>
<path d="M19.101 30.9215C19.1004 30.899 19.0954 30.8768 19.0862 30.8563C19.0771 30.8358 19.0639 30.8173 19.0476 30.8018C19.0313 30.7864 19.012 30.7743 18.991 30.7663C18.97 30.7584 18.9476 30.7546 18.9252 30.7553H18.5199C18.497 30.7537 18.4741 30.7567 18.4524 30.7643C18.4308 30.772 18.4109 30.784 18.3941 30.7996C18.3773 30.8152 18.3639 30.8341 18.3547 30.8552C18.3456 30.8762 18.3408 30.8989 18.3408 30.9219C18.3408 30.9449 18.3456 30.9676 18.3547 30.9886C18.3639 31.0096 18.3773 31.0286 18.3941 31.0442C18.4109 31.0598 18.4308 31.0718 18.4524 31.0794C18.4741 31.0871 18.497 31.0901 18.5199 31.0885C18.5304 31.0887 18.5409 31.0868 18.5506 31.0828C18.5603 31.0788 18.569 31.0727 18.5762 31.0651C18.5835 31.0575 18.589 31.0484 18.5925 31.0385C18.5959 31.0286 18.5973 31.0181 18.5964 31.0076H18.8478C18.8469 31.0181 18.8483 31.0286 18.8518 31.0385C18.8552 31.0484 18.8608 31.0575 18.868 31.0651C18.8752 31.0727 18.8839 31.0788 18.8936 31.0828C18.9033 31.0868 18.9138 31.0887 18.9243 31.0885C18.9467 31.0892 18.9691 31.0854 18.9901 31.0774C19.0112 31.0695 19.0304 31.0574 19.0467 31.042C19.0631 31.0265 19.0762 31.008 19.0853 30.9875C19.0945 30.9669 19.0995 30.9448 19.1001 30.9223" fill="#003C49"/>
<path d="M16.0736 30.7553H15.6684C15.6455 30.7537 15.6225 30.7567 15.6008 30.7643C15.5792 30.772 15.5593 30.784 15.5425 30.7996C15.5257 30.8152 15.5123 30.8341 15.5032 30.8552C15.494 30.8762 15.4893 30.8989 15.4893 30.9219C15.4893 30.9448 15.494 30.9675 15.5032 30.9886C15.5123 31.0096 15.5257 31.0286 15.5425 31.0442C15.5593 31.0598 15.5792 31.0718 15.6008 31.0794C15.6225 31.0871 15.6455 31.0901 15.6684 31.0885C15.6789 31.0887 15.6893 31.0868 15.699 31.0828C15.7087 31.0788 15.7175 31.0727 15.7247 31.0651C15.7319 31.0575 15.7374 31.0484 15.7409 31.0385C15.7444 31.0286 15.7457 31.0181 15.7448 31.0076H15.9962C15.9954 31.0181 15.9967 31.0286 16.0002 31.0385C16.0037 31.0484 16.0092 31.0575 16.0164 31.0651C16.0236 31.0727 16.0324 31.0788 16.0421 31.0828C16.0518 31.0868 16.0622 31.0887 16.0727 31.0885C16.0956 31.0901 16.1186 31.0871 16.1402 31.0794C16.1619 31.0718 16.1817 31.0598 16.1986 31.0442C16.2154 31.0286 16.2288 31.0096 16.2379 30.9886C16.2471 30.9675 16.2518 30.9448 16.2518 30.9219C16.2518 30.8989 16.2471 30.8762 16.2379 30.8552C16.2288 30.8341 16.2154 30.8152 16.1986 30.7996C16.1817 30.784 16.1619 30.772 16.1402 30.7643C16.1186 30.7567 16.0965 30.7537 16.0736 30.7553Z" fill="#003C49"/>
<path d="M1.74143 31.929H0.563578L0.529297 32.0169H1.74143V31.929Z" fill="#003C49"/>
<path d="M1.48847 32.181H0.566406V32.5968H1.48847V32.181Z" fill="#003C49"/>
<path d="M0.985687 32.6848H0.566406V33.6069H0.985687V32.6848Z" fill="#003C49"/>
<path d="M1.48959 32.6848H1.07031V33.6069H1.48959V32.6848Z" fill="#003C49"/>
<path d="M1.73921 34.9496H0.313477V35.0331H1.73921V34.9496Z" fill="#003C49"/>
<path d="M1.48847 35.1995H0.566406V35.6152H1.48847V35.1995Z" fill="#003C49"/>
<path d="M0.985687 35.7103H0.566406V36.6254H0.985687V35.7103Z" fill="#003C49"/>
<path d="M1.48959 35.7026H1.07031V36.6247H1.48959V35.7026Z" fill="#003C49"/>
<path d="M32.8516 32.0169H34.0611L34.0268 31.929H32.8516V32.0169Z" fill="#003C49"/>
<path d="M34.0246 32.1809H33.1025V32.5967H34.0246V32.1809Z" fill="#003C49"/>
<path d="M34.0257 32.6848H33.6064V33.6069H34.0257V32.6848Z" fill="#003C49"/>
<path d="M33.5218 32.6848H33.1025V33.6069H33.5218V32.6848Z" fill="#003C49"/>
<path d="M34.2773 34.9492H32.8516V35.0327H34.2773V34.9492Z" fill="#003C49"/>
<path d="M34.0246 35.1995H33.1025V35.6152H34.0246V35.1995Z" fill="#003C49"/>
<path d="M34.0257 35.7103H33.6064V36.6254H34.0257V35.7103Z" fill="#003C49"/>
<path d="M33.5218 35.7034H33.1025V36.6254H33.5218V35.7034Z" fill="#003C49"/>
<path d="M4.67581 34.948H3.41797V35.0315H4.67581V34.948Z" fill="#003C49"/>
<path d="M4.42596 35.1995H3.6709V35.6187H4.42596V35.1995Z" fill="#003C49"/>
<path d="M4.00667 35.7026H3.6709V36.7926H4.00667V35.7026Z" fill="#003C49"/>
<path d="M4.42367 35.7031H4.08789V36.7922H4.42367V35.7031Z" fill="#003C49"/>
<path d="M6.51956 34.9479H5.26172V35.0314H6.51956V34.9479Z" fill="#003C49"/>
<path d="M6.26971 35.1995H5.51465V35.6187H6.26971V35.1995Z" fill="#003C49"/>
<path d="M5.85042 35.7026H5.51465V36.7926H5.85042V35.7026Z" fill="#003C49"/>
<path d="M6.26839 35.7031H5.93262V36.7922H6.26839V35.7031Z" fill="#003C49"/>
<path d="M8.36624 34.9479H7.1084V35.0314H8.36624V34.9479Z" fill="#003C49"/>
<path d="M8.11346 35.1995H7.3584V35.6187H8.11346V35.1995Z" fill="#003C49"/>
<path d="M7.69417 35.7025H7.3584V36.7925H7.69417V35.7025Z" fill="#003C49"/>
<path d="M8.11507 35.7034H7.7793V36.7924H8.11507V35.7034Z" fill="#003C49"/>
<path d="M10.209 34.9479H8.95117V35.0314H10.209V34.9479Z" fill="#003C49"/>
<path d="M9.96014 35.1995H9.20508V35.6187H9.96014V35.1995Z" fill="#003C49"/>
<path d="M9.54085 35.7026H9.20508V36.7926H9.54085V35.7026Z" fill="#003C49"/>
<path d="M9.95785 35.7031H9.62207V36.7922H9.95785V35.7031Z" fill="#003C49"/>
<path d="M12.0537 34.9479H10.7959V35.0314H12.0537V34.9479Z" fill="#003C49"/>
<path d="M11.8019 35.1995H11.0469V35.6187H11.8019V35.1995Z" fill="#003C49"/>
<path d="M11.3827 35.7025H11.0469V36.7925H11.3827V35.7025Z" fill="#003C49"/>
<path d="M11.8045 35.7031H11.4688V36.7922H11.8045V35.7031Z" fill="#003C49"/>
<path d="M13.9014 34.9479H12.6436V35.0314H13.9014V34.9479Z" fill="#003C49"/>
<path d="M13.6476 35.1995H12.8926V35.6187H13.6476V35.1995Z" fill="#003C49"/>
<path d="M13.2284 35.7026H12.8926V36.7926H13.2284V35.7026Z" fill="#003C49"/>
<path d="M13.6483 35.7034H13.3125V36.7924H13.6483V35.7034Z" fill="#003C49"/>
<path d="M21.9492 32.0139H20.6914V32.0974H21.9492V32.0139Z" fill="#003C49"/>
<path d="M21.6984 32.2655H20.9434V32.6848H21.6984V32.2655Z" fill="#003C49"/>
<path d="M21.2791 32.7681H20.9434V33.858H21.2791V32.7681Z" fill="#003C49"/>
<path d="M21.7 32.7681H21.3643V33.858H21.7V32.7681Z" fill="#003C49"/>
<path d="M23.794 32.014H22.5361V32.0975H23.794V32.014Z" fill="#003C49"/>
<path d="M23.5431 32.2655H22.7881V32.6848H23.5431V32.2655Z" fill="#003C49"/>
<path d="M23.1239 32.7681H22.7881V33.858H23.1239V32.7681Z" fill="#003C49"/>
<path d="M23.5428 32.7681H23.207V33.858H23.5428V32.7681Z" fill="#003C49"/>
<path d="M25.6387 32.0139H24.3809V32.0974H25.6387V32.0139Z" fill="#003C49"/>
<path d="M25.3879 32.2655H24.6328V32.6848H25.3879V32.2655Z" fill="#003C49"/>
<path d="M24.9686 32.7681H24.6328V33.858H24.9686V32.7681Z" fill="#003C49"/>
<path d="M25.3875 32.7681H25.0518V33.858H25.3875V32.7681Z" fill="#003C49"/>
<path d="M27.4864 32.0139H26.2285V32.0974H27.4864V32.0139Z" fill="#003C49"/>
<path d="M27.2326 32.2655H26.4775V32.6848H27.2326V32.2655Z" fill="#003C49"/>
<path d="M26.8133 32.7681H26.4775V33.858H26.8133V32.7681Z" fill="#003C49"/>
<path d="M27.2323 32.7681H26.8965V33.858H27.2323V32.7681Z" fill="#003C49"/>
<path d="M29.3291 32.014H28.0713V32.0975H29.3291V32.014Z" fill="#003C49"/>
<path d="M29.0803 32.2655H28.3252V32.6848H29.0803V32.2655Z" fill="#003C49"/>
<path d="M28.661 32.7681H28.3252V33.858H28.661V32.7681Z" fill="#003C49"/>
<path d="M29.078 32.7681H28.7422V33.858H29.078V32.7681Z" fill="#003C49"/>
<path d="M31.1739 32.0139H29.916V32.0974H31.1739V32.0139Z" fill="#003C49"/>
<path d="M30.923 32.2655H30.168V32.6848H30.923V32.2655Z" fill="#003C49"/>
<path d="M30.5037 32.7681H30.168V33.858H30.5037V32.7681Z" fill="#003C49"/>
<path d="M30.9246 32.7681H30.5889V33.858H30.9246V32.7681Z" fill="#003C49"/>
<path d="M21.9492 34.9479H20.6914V35.0314H21.9492V34.9479Z" fill="#003C49"/>
<path d="M21.6984 35.1995H20.9434V35.6187H21.6984V35.1995Z" fill="#003C49"/>
<path d="M21.2791 35.7025H20.9434V36.7925H21.2791V35.7025Z" fill="#003C49"/>
<path d="M21.7 35.7031H21.3643V36.7922H21.7V35.7031Z" fill="#003C49"/>
<path d="M23.794 34.948H22.5361V35.0315H23.794V34.948Z" fill="#003C49"/>
<path d="M23.5431 35.1995H22.7881V35.6187H23.5431V35.1995Z" fill="#003C49"/>
<path d="M23.1239 35.7026H22.7881V36.7926H23.1239V35.7026Z" fill="#003C49"/>
<path d="M23.5428 35.7031H23.207V36.7922H23.5428V35.7031Z" fill="#003C49"/>
<path d="M25.6387 34.9479H24.3809V35.0314H25.6387V34.9479Z" fill="#003C49"/>
<path d="M25.3879 35.1995H24.6328V35.6187H25.3879V35.1995Z" fill="#003C49"/>
<path d="M24.9686 35.7026H24.6328V36.7926H24.9686V35.7026Z" fill="#003C49"/>
<path d="M25.3875 35.7031H25.0518V36.7922H25.3875V35.7031Z" fill="#003C49"/>
<path d="M27.4864 34.9479H26.2285V35.0314H27.4864V34.9479Z" fill="#003C49"/>
<path d="M27.2326 35.1995H26.4775V35.6187H27.2326V35.1995Z" fill="#003C49"/>
<path d="M26.8133 35.7025H26.4775V36.7925H26.8133V35.7025Z" fill="#003C49"/>
<path d="M27.2323 35.7034H26.8965V36.7924H27.2323V35.7034Z" fill="#003C49"/>
<path d="M29.3291 34.948H28.0713V35.0315H29.3291V34.948Z" fill="#003C49"/>
<path d="M29.0803 35.1995H28.3252V35.6187H29.0803V35.1995Z" fill="#003C49"/>
<path d="M28.661 35.7026H28.3252V36.7926H28.661V35.7026Z" fill="#003C49"/>
<path d="M29.078 35.7034H28.7422V36.7924H29.078V35.7034Z" fill="#003C49"/>
<path d="M31.1739 34.9479H29.916V35.0314H31.1739V34.9479Z" fill="#003C49"/>
<path d="M30.923 35.1995H30.168V35.6187H30.923V35.1995Z" fill="#003C49"/>
<path d="M30.5037 35.7025H30.168V36.7925H30.5037V35.7025Z" fill="#003C49"/>
<path d="M30.9246 35.7031H30.5889V36.7922H30.9246V35.7031Z" fill="#003C49"/>
</g>
</svg>
